# xmcd CD database file
#
# Track frame offsets:
#	150
#	15382
#	30069
#	42064
#	62320
#	75261
#	93317
#	121180
#	134680
#	149446
#	169324
#	182065
#
# Disc length: 2636 seconds
#
# Revision: 8
# Processed by: cddbd v1.5.2PL0 Copyright (c) Steve Scherf et al.
# Submitted via: CDex 1.70beta2
#
DISCID=890a4a0c
DTITLE=Scott Walker - Scott 2 [UK Philips - mono vinyl]
DYEAR=1968
DGENRE=Rock
TTITLE0=Jackie
TTITLE1=Best Of Both Worlds
TTITLE2=Black Sheep Boy
TTITLE3=The Amorous Humphrey Plugg
TTITLE4=Next
TTITLE5=The Girls From The Streets
TTITLE6=Plastic Palace People
TTITLE7=Wait Until Dark
TTITLE8=The Girls And The Dogs
TTITLE9=Windows Of The World
TTITLE10=The Bridge
TTITLE11=Come Next Spring
EXTD=YEAR: 1968
EXTT0=
EXTT1=
EXTT2=
EXTT3=
EXTT4=
EXTT5=
EXTT6=
EXTT7=
EXTT8=
EXTT9=
EXTT10=
EXTT11=
PLAYORDER=
